<svg width="20" height="27" viewBox="0 0 20 27" fill="none" xmlns="http://www.w3.org/2000/svg">
<path d="M0 17.8906C0 23.4766 3.63281 26.6406 8.50587 26.6406C12.4903 26.6406 15.0977 24.873 16.6992 21.1426C17.5782 19.2578 18.2813 17.0703 19.0039 14.5996C19.2871 13.7012 19.6582 12.5977 19.6582 12.0898C19.6582 11.4258 19.17 11.0059 18.4961 11.0059C17.7832 11.0059 17.3242 11.4355 16.8164 12.5L15.1172 16.2402C14.9219 16.6895 14.6875 16.8457 14.4532 16.8457C14.1602 16.8457 13.9453 16.6699 13.9453 16.1621V3.23242C13.9453 2.5293 13.3692 1.94336 12.6563 1.94336C11.9532 1.94336 11.3672 2.5293 11.3672 3.23242V12.4316C11.0157 12.2949 10.625 12.1777 10.2051 12.0996V1.28906C10.2051 0.585938 9.61917 0 8.91597 0C8.20313 0 7.62695 0.585938 7.62695 1.28906V11.9531C7.1875 11.9922 6.75781 12.041 6.33789 12.1191V2.44141C6.33789 1.73828 5.76172 1.16211 5.04883 1.16211C4.3457 1.16211 3.75977 1.73828 3.75977 2.44141V12.9492C3.32031 13.1543 2.92969 13.3887 2.57813 13.6328V6.33789C2.57813 5.63477 1.99219 5.04883 1.28906 5.04883C0.58594 5.04883 0 5.63477 0 6.33789V17.8906Z" fill="black" fill-opacity="0.85"/>
</svg>
